<?xml version="1.0" standalone="no"?><svg xmlns="http://www.w3.org/2000/svg" viewBox="0 0 1440 320"><path fill="#00cba9" fill-opacity="0.3" d="M0,192L30,197.3C60,203,120,213,180,229.3C240,245,300,267,360,266.7C420,267,480,245,540,213.3C600,181,660,139,720,144C780,149,840,203,900,213.3C960,224,1020,192,1080,186.7C1140,181,1200,203,1260,181.3C1320,160,1380,96,1410,64L1440,32L1440,320L1410,320C1380,320,1320,320,1260,320C1200,320,1140,320,1080,320C1020,320,960,320,900,320C840,320,780,320,720,320C660,320,600,320,540,320C480,320,420,320,360,320C300,320,240,320,180,320C120,320,60,320,30,320L0,320Z"></path></svg>